# xmcd
#
# Track frame offsets: 
#        150
#        20932
#        32812
#        48808
#        67702
#        84094
#        98949
#        115866
#        135208
#        152874
#        168099
#
# Disc length: 2449 seconds
#
# Revision: 0
# Processed by: cddbd v1.5.2PL0 Copyright (c) Steve Scherf et al.
# Submitted via: ExactAudioCopy v1.3
#
DISCID=7a098f0b
DTITLE=Billy Crawford Band - Memphis City Limits
DYEAR=2004
DGENRE=Electric Blues
TTITLE0=He Don' t Love Me
TTITLE1=Let' s Have A Party
TTITLE2=Triple Shot
TTITLE3=My Kinda Man
TTITLE4=Are You Hurtin
TTITLE5=Over Easy
TTITLE6=In The Light
TTITLE7=Ain`t Gonna Worry
TTITLE8=Early Train
TTITLE9=Cadillac Boogie
TTITLE10=My Blue Heart
EXTD=
EXTT0=
EXTT1=
EXTT2=
EXTT3=
EXTT4=
EXTT5=
EXTT6=
EXTT7=
EXTT8=
EXTT9=
EXTT10=
PLAYORDER=
